<?xml version="1.0" encoding="utf-8"?>
<!-- Generator: Adobe Illustrator 18.0.0, SVG Export Plug-In . SVG Version: 6.00 Build 0)  -->
<!DOCTYPE svg PUBLIC "-//W3C//DTD SVG 1.1//EN" "http://www.w3.org/Graphics/SVG/1.1/DTD/svg11.dtd">
<svg version="1.1" xmlns="http://www.w3.org/2000/svg" xmlns:xlink="http://www.w3.org/1999/xlink" x="0px" y="0px" width="500px"
	 height="500px" viewBox="0 0 500 500" enable-background="new 0 0 500 500" xml:space="preserve">
<g id="Layer_1" display="none">
	<g display="inline">
		<path d="M258.1,343v-84.6h-19.7v65.2l-77-77h65.2V162h11.8v84.6h19.7v-64.9l76.7,76.7h-64.9v56.1l28.4-28.4l8.3,8.3L258.1,343z
			 M189.9,258.4l36.7,36.7v-36.7H189.9z M269.9,246.6h36.4l-36.4-36.4V246.6z"/>
	</g>
	<g display="inline">
		<path d="M250,495.7L4.3,250L250,4.4L495.7,250L250,495.7z M19.2,250L250,480.8L480.8,250L250,19.2L19.2,250z"/>
	</g>
</g>
<g id="Layer_2_1_">
	<rect x="-0.4" y="-0.4" fill="#F7F7F7" width="500.9" height="500.9"/>
	<g opacity="0.85">
		<path d="M163.5,353.1l86.2-86.2l-20.1-20.1l-66.4,66.4l0-156.9l66.4,66.4l86.2-86.2l12,12l-86.2,86.2l20.1,20.1l66.2-66.2l0,156.4
			l-66.2-66.2l-57.2,57.2h57.8v17L163.5,353.1z M180.2,197.3l0,74.8l37.4-37.4L180.2,197.3z M273.8,266.9L311,304l0-74.3
			L273.8,266.9z"/>
	</g>
	<g opacity="0.85">
		<path d="M-0.5,500.5l0-500.9l500.9,0l0,500.9L-0.5,500.5z M14.7,14.7l0,470.5l470.5,0l0-470.5L14.7,14.7z"/>
	</g>
</g>
<g id="Layer_3" display="none">
	<g id="Layer_3_1_" display="inline">
		
			<rect x="-2345.2" y="-314.9" transform="matrix(-0.7071 -0.7071 0.7071 -0.7071 168.9918 659.1)" fill="#F7F7F7" width="5132.3" height="1218.9"/>
		<rect x="7.8" y="6.7" fill="#F9F9F9" width="485.2" height="485.2"/>
		<polygon fill="#B7B7B7" points="0.1,498.2 3.8,939.3 503.8,1439.2 500.7,495.7 		"/>
		<polygon fill="#E5E5E5" points="327.9,147.6 327.9,205.3 319.8,221.6 317.7,316.6 262.2,266.2 179.8,344.1 164.3,351.3 
			164.3,289.3 176.8,202.7 172.2,186.4 229.3,234.1 317,151.7 		"/>
		<polygon fill="#D8D8D8" points="327.6,342.9 327.6,496.5 165.4,491.9 165.4,351.3 205.8,319.5 260.7,264.7 		"/>
		<polygon fill="#CCCCCC" points="164.3,351.3 164.3,486.3 263.1,487.3 263.1,343.8 177.9,349.2 		"/>
	</g>
	<g id="Layer_2" display="inline">
		<polyline fill="none" stroke="#3F3F3F" stroke-width="16.9944" stroke-miterlimit="10" points="322.2,141.9 172.2,291.9 
			172.2,176.2 288.5,292.5 319.8,323.8 319.8,208.5 184.5,343.8 262.8,343.8 		"/>
		
			<rect x="7.8" y="6.7" fill="none" stroke="#3F3F3F" stroke-width="15.1643" stroke-miterlimit="10" width="485.2" height="485.2"/>
	</g>
</g>
</svg>
