<?xml version="1.0" encoding="utf-8"?>
<!-- Generator: Adobe Illustrator 16.0.0, SVG Export Plug-In . SVG Version: 6.00 Build 0)  -->
<!DOCTYPE svg PUBLIC "-//W3C//DTD SVG 1.1//EN" "http://www.w3.org/Graphics/SVG/1.1/DTD/svg11.dtd">
<svg version="1.1" id="Layer_1" xmlns="http://www.w3.org/2000/svg" xmlns:xlink="http://www.w3.org/1999/xlink" x="0px" y="0px"
	 width="1150px" height="65px" viewBox="0 0 1150 65" enable-background="new 0 0 1150 65" xml:space="preserve">

<style>
g {}
	
	
g {
	opacity: 0.0;		
	animation: tI 1.93s cubic-bezier(.34,-0.36,0,.76) forwards 1s;
}

@keyframes tI {
  0% {
	  transform: translateY(100%);
    opacity: 0.0;
  }
  
  50% {
     transform: translateY(0%);
    opacity: 1;
    fill: #D8D8D8;
  }
  
  75% {
    fill: #333;
  }
  100% {
    fill: #D8D8D8;
    opacity: 1;
  }
}

	
	
</style>


<rect fill="rgba(246, 247, 247, 0.0)"  width="1150" height="65"/>
<g  >
		
	<g class="t_I" >
			<path  d="M16.375,13.096h2.851V53h-2.851V13.096z"/>
	</g>	
	<g  class="t_MAKE">		
			<path fill="#D8D8D8" d="M50.062,13.096h2.907l15.335,20.18l15.335-20.18h2.793V53h-2.851V17.484L69.216,36.411h-1.824
				l-14.48-18.927V53h-2.85V13.096z"/>
			<path fill="#D8D8D8" d="M114.074,12.867h2.622L134.71,53h-2.964l-5.245-11.629h-22.29L98.967,53h-2.964L114.074,12.867z
				 M125.475,38.862l-10.09-22.29l-10.147,22.29H125.475z"/>
			<path fill="#D8D8D8" d="M144.167,13.096h2.85v17.558l20.066-17.558h3.934l-20.808,18.299l24,21.605h-4.275l-22.917-20.693V53h-2.85
				V13.096z"/>
			<path fill="#D8D8D8" d="M182.414,13.096h26.793v2.622h-23.942v14.479h19.781v2.68h-19.781v17.501h24.854V53h-27.705V13.096z"/>
	</g>		
	<g  class="t_ART">			
			<path fill="#D8D8D8" d="M251.385,12.867h2.622L272.021,53h-2.964l-5.245-11.629h-22.29L236.278,53h-2.964L251.385,12.867z
				 M262.787,38.862l-10.09-22.29l-10.147,22.29H262.787z"/>
			<path fill="#D8D8D8" d="M281.479,13.096h17.729c7.81,0,12.2,4.275,12.2,10.546c0,5.644-3.478,9.748-9.862,10.489L314.6,53h-3.307
				l-12.998-18.642h-13.967V53h-2.85V13.096z M298.979,31.736c6.043,0,9.577-2.851,9.577-8.038c0-5.073-3.534-7.98-9.577-7.98h-14.651
				v16.019H298.979z"/>
			<path fill="#D8D8D8" d="M333.805,15.718h-14.251v-2.622h31.354v2.622h-14.252V53h-2.851V15.718z"/>
	</g>
	<g  class="t_ON">			
			<path fill="#D8D8D8" d="M372.906,33.048c0-11.801,8.551-20.637,19.896-20.637c11.23,0,19.838,8.836,19.838,20.637
				c0,11.857-8.608,20.636-19.838,20.636C381.457,53.684,372.906,44.905,372.906,33.048z M409.732,33.048
				c0-10.318-7.468-17.9-16.931-17.9c-9.463,0-16.988,7.582-16.988,17.9s7.525,17.957,16.988,17.957
				C402.265,51.005,409.732,43.366,409.732,33.048z"/>
			<path fill="#D8D8D8" d="M424.547,13.096h2.508l26.907,34.944V13.096h2.85V53h-2.451l-26.964-35.002V53h-2.851V13.096z"/>
	</g>		
	<g  class="t_MODERN">
			<path fill="#D8D8D8" d="M487.361,13.096h2.907l15.335,20.18l15.335-20.18h2.793V53h-2.851V17.484l-14.366,18.927h-1.824
				l-14.48-18.927V53h-2.85V13.096z"/>
			<path fill="#D8D8D8" d="M535.639,33.048c0-11.801,8.551-20.637,19.895-20.637c11.23,0,19.838,8.836,19.838,20.637
				c0,11.857-8.608,20.636-19.838,20.636C544.19,53.684,535.639,44.905,535.639,33.048z M572.465,33.048
				c0-10.318-7.468-17.9-16.931-17.9c-9.463,0-16.988,7.582-16.988,17.9s7.525,17.957,16.988,17.957
				C564.998,51.005,572.465,43.366,572.465,33.048z"/>
			<path fill="#D8D8D8" d="M587.281,13.096h12.484c12.77,0,21.49,8.095,21.49,19.952S612.535,53,599.766,53h-12.484V13.096z
				 M599.309,50.378c11.857,0,19.041-6.955,19.041-17.33c0-10.376-7.184-17.33-19.041-17.33h-9.178v34.66H599.309z"/>
			<path fill="#D8D8D8" d="M633.166,13.096h26.793v2.622h-23.943v14.479h19.781v2.68h-19.781v17.501h24.855V53h-27.705V13.096z"/>
			<path fill="#D8D8D8" d="M671.184,13.096h17.73c7.809,0,12.199,4.275,12.199,10.546c0,5.644-3.479,9.748-9.863,10.489L704.305,53
				h-3.307l-12.996-18.642h-13.967V53h-2.852V13.096z M688.686,31.736c6.043,0,9.576-2.851,9.576-8.038c0-5.073-3.533-7.98-9.576-7.98
				h-14.65v16.019H688.686z"/>
			<path fill="#D8D8D8" d="M714.846,13.096h2.508L744.26,48.04V13.096h2.852V53h-2.451l-26.965-35.002V53h-2.85V13.096z"/>
	</g>
	<g  class="t_PLATFORMS">
			<path fill="#D8D8D8" d="M777.66,13.096h16.645c7.982,0,12.371,4.389,12.371,10.773s-4.389,10.832-12.371,10.832H780.51V53h-2.85
				V13.096z M794.021,32.078c6.27,0,9.805-2.964,9.805-8.209c0-5.188-3.535-8.151-9.805-8.151H780.51v16.36H794.021z"/>
			<path fill="#D8D8D8" d="M817.273,13.096h2.852v37.282h23.088V53h-25.939V13.096z"/>
			<path fill="#D8D8D8" d="M866.807,12.867h2.623L887.443,53h-2.965l-5.244-11.629h-22.289L851.701,53h-2.965L866.807,12.867z
				 M878.209,38.862l-10.09-22.29l-10.148,22.29H878.209z"/>
			<path fill="#D8D8D8" d="M901.576,15.718h-14.252v-2.622h31.355v2.622h-14.252V53h-2.852V15.718z"/>
			<path fill="#D8D8D8" d="M928.309,13.096h26.508v2.622h-23.658V30.71h19.553v2.68h-19.553V53h-2.85V13.096z"/>
			<path fill="#D8D8D8" d="M962.281,33.048c0-11.801,8.551-20.637,19.895-20.637c11.23,0,19.838,8.836,19.838,20.637
				c0,11.857-8.607,20.636-19.838,20.636C970.832,53.684,962.281,44.905,962.281,33.048z M999.107,33.048
				c0-10.318-7.469-17.9-16.932-17.9s-16.988,7.582-16.988,17.9s7.525,17.957,16.988,17.957S999.107,43.366,999.107,33.048z"/>
			<path fill="#D8D8D8" d="M1013.922,13.096h17.73c7.809,0,12.199,4.275,12.199,10.546c0,5.644-3.479,9.748-9.863,10.489L1047.043,53
				h-3.307l-12.996-18.642h-13.967V53h-2.852V13.096z M1031.424,31.736c6.043,0,9.576-2.851,9.576-8.038
				c0-5.073-3.533-7.98-9.576-7.98h-14.65v16.019H1031.424z"/>
			<path fill="#D8D8D8" d="M1057.584,13.096h2.906l15.336,20.18l15.334-20.18h2.793V53h-2.85V17.484l-14.365,18.927h-1.824
				l-14.48-18.927V53h-2.85V13.096z"/>
			<path fill="#D8D8D8" d="M1104.379,49.408v-3.249c2.623,2.28,8.096,4.846,14.365,4.846c6.729,0,11.744-3.249,11.744-8.494
				c0-5.872-5.416-7.297-11.914-9.121c-7.354-2.109-12.998-4.048-12.998-11.06c0-5.358,4.447-9.919,13.283-9.919
				c4.789,0,8.949,1.312,12.143,3.363v3.021c-3.25-2.224-7.297-3.648-12.029-3.648c-7.41,0-10.545,3.478-10.545,7.24
				c0,5.244,5.188,6.612,11.742,8.493c6.385,1.824,13.227,4.048,13.227,11.63c0,7.354-6.842,11.173-14.424,11.173
				C1112.645,53.684,1107.172,51.575,1104.379,49.408z"/>
	</g>
		
</g>
</svg>
