<?xml version="1.0" encoding="utf-8"?>
<!-- Generator: Adobe Illustrator 16.0.0, SVG Export Plug-In . SVG Version: 6.00 Build 0)  -->
<!DOCTYPE svg PUBLIC "-//W3C//DTD SVG 1.1//EN" "http://www.w3.org/Graphics/SVG/1.1/DTD/svg11.dtd">
<svg version="1.1" id="Layer_1" xmlns="http://www.w3.org/2000/svg" xmlns:xlink="http://www.w3.org/1999/xlink" x="0px" y="0px"
	 width="512px" height="512px" viewBox="0 0 512 512" enable-background="new 0 0 512 512" xml:space="preserve">
<path fill="#FFFFFF" d="M511,97.258c-18.837,8.351-39.076,13.996-60.329,16.528c21.682-12.999,38.343-33.583,46.181-58.098
	c-20.292,12.032-42.783,20.785-66.698,25.479C410.997,60.766,383.693,48,353.486,48c-58.012,0-105.045,47.024-105.045,105.041
	c0,8.228,0.929,16.253,2.725,23.944c-87.302-4.38-164.698-46.203-216.508-109.762c-9.042,15.519-14.22,33.57-14.22,52.813
	c0,36.443,18.542,68.585,46.729,87.429c-17.214-0.552-33.411-5.279-47.573-13.14c-0.016,0.442-0.016,0.874-0.016,1.325
	c0,50.878,36.206,93.334,84.253,102.997c-8.811,2.389-18.087,3.674-27.667,3.674c-6.776,0-13.351-0.648-19.77-1.883
	c13.367,41.727,52.157,72.102,98.123,72.959c-35.953,28.16-81.24,44.965-130.456,44.965c-8.477,0-16.837-0.492-25.061-1.473
	c46.482,29.803,101.697,47.186,161.014,47.186c193.212,0,298.865-160.053,298.865-298.845c0-4.546-0.11-9.088-0.306-13.604
	C479.111,136.824,496.923,118.322,511,97.258z"/>
</svg>
