<?xml version="1.0" encoding="utf-8"?>
<!-- Generator: Adobe Illustrator 16.0.0, SVG Export Plug-In . SVG Version: 6.00 Build 0)  -->
<!DOCTYPE svg PUBLIC "-//W3C//DTD SVG 1.1//EN" "http://www.w3.org/Graphics/SVG/1.1/DTD/svg11.dtd">
<svg version="1.1" id="Layer_1" xmlns="http://www.w3.org/2000/svg" xmlns:xlink="http://www.w3.org/1999/xlink" x="0px" y="0px"
	 width="2400px" height="2000px" viewBox="0 0 2400 2000" style="enable-background:new 0 0 2400 2000;" xml:space="preserve">
<rect x="-0.5" y="-0.5" style="stroke:#000000;stroke-width:5;stroke-miterlimit:10;" width="2400" height="2000"/>
<rect y="203" style="opacity:0.16;fill:#727272;" width="729" height="133"/>
<text transform="matrix(1 0 0 1 1463.4316 795.8452)" style="fill:#666256; font-family:'Futura-Medium'; font-size:32.2558; letter-spacing:9;">FUNCTION</text>
<text transform="matrix(1 0 0 1 1522.0664 1106.1152)" style="fill:#666256; font-family:'Futura-Medium'; font-size:32.2558; letter-spacing:9;">FORM</text>
<text transform="matrix(1 0 0 1 1523.6875 482.3374)" style="fill:#666256; font-family:'Futura-Medium'; font-size:32.2558; letter-spacing:9;">MIND</text>
<text transform="matrix(1 0 0 1 -813.3066 283.7026)" style="fill:#666256; font-family:'Futura-Medium'; font-size:32; letter-spacing:9;">“HUMANIQUNESS”</text>
<text transform="matrix(1 0 0 1 1329.6914 335.7637)" style="fill:#C4C3C2; font-family:'Futura-Medium'; font-size:47.6157; letter-spacing:14;">ICONOGRAPHY</text>
<g>
	<path style="fill:#1C1C1C;" d="M2188.066,616.073c-6.104,0-11.068-4.964-11.068-11.066c0-6.103,4.965-11.067,11.068-11.067
		c6.102,0,11.066,4.965,11.066,11.067C2199.133,611.108,2194.168,616.073,2188.066,616.073z"/>
	<path style="fill:#E8E8E8;" d="M2188.066,595.137c5.441,0,9.869,4.427,9.869,9.87c0,5.442-4.428,9.869-9.869,9.869
		c-5.443,0-9.871-4.427-9.871-9.869C2178.195,599.564,2182.623,595.137,2188.066,595.137 M2188.066,592.742
		c-6.775,0-12.266,5.491-12.266,12.265c0,6.772,5.49,12.264,12.266,12.264c6.772,0,12.264-5.491,12.264-12.264
		C2200.33,598.232,2194.839,592.742,2188.066,592.742L2188.066,592.742z"/>
</g>
<g>
	<circle style="fill:#E8E8E8;" cx="2174.126" cy="605.006" r="12.264"/>
</g>
<g>
	<path style="fill:#E8E8E8;" d="M2181.16,568.4l36.611,36.612l-36.611,36.611l-36.613-36.611L2181.16,568.4 M2181.16,563.823
		l-41.189,41.189l41.189,41.188l41.188-41.188L2181.16,563.823L2181.16,563.823z"/>
</g>
<text transform="matrix(1 0 0 1 2146.9746 698.7666)" style="fill:#4C4B49; font-family:'ChaparralPro-Regular'; font-size:20.5268; letter-spacing:1;">ADAPT</text>
<g>
	<path style="fill:#E8E8E8;" d="M1182.673,568.264l36.612,36.613l-36.612,36.611l-36.612-36.611L1182.673,568.264 M1182.673,563.688
		l-41.189,41.189l41.189,41.188l41.188-41.188L1182.673,563.688L1182.673,563.688z"/>
</g>
<text transform="matrix(1 0 0 1 1141.4116 698.6313)" style="fill:#4C4B49; font-family:'ChaparralPro-Regular'; font-size:18.8162;">INSIGHT</text>
<g>
	<polygon style="fill:#E8E8E8;" points="1187,612.241 1187,597.976 1194.103,605.123 	"/>
</g>
<g>
	<polygon style="fill:#E8E8E8;" points="1182,580.134 1182,630.083 1157.136,605.056 	"/>
</g>
<g>
	<path style="fill:#E8E8E8;" d="M1780.605,568.264l36.613,36.613l-36.613,36.611l-36.612-36.611L1780.605,568.264 M1780.605,563.688
		l-41.188,41.189l41.188,41.188l41.189-41.188L1780.605,563.688L1780.605,563.688z"/>
</g>
<text transform="matrix(1 0 0 1 1719.3047 698.6313)" style="fill:#4C4B49; font-family:'ChaparralPro-Regular'; font-size:20.5268; letter-spacing:1;">CHALLENGE</text>
<line style="fill:none;stroke:#E8E8E8;stroke-width:3.079;stroke-miterlimit:10;" x1="1782.043" y1="585.443" x2="1762.402" y2="605.085"/>
<line style="fill:none;stroke:#E8E8E8;stroke-width:3.079;stroke-miterlimit:10;" x1="1790.887" y1="614.589" x2="1781.035" y2="624.442"/>
<line style="fill:none;stroke:#1E1E1E;stroke-width:3.9343;stroke-miterlimit:10;" x1="1818.233" y1="606.401" x2="1810.799" y2="613.837"/>
<line style="fill:none;stroke:#E8E8E8;stroke-width:3.079;stroke-miterlimit:10;" x1="1782.439" y1="625.124" x2="1761.371" y2="604.055"/>
<line style="fill:none;stroke:#E8E8E8;stroke-width:3.079;stroke-miterlimit:10;" x1="1791.678" y1="615.887" x2="1779.364" y2="603.573"/>
<line style="fill:none;stroke:#E8E8E8;stroke-width:3.079;stroke-miterlimit:10;" x1="1780.504" y1="585.226" x2="1810.732" y2="615.453"/>
<g>
	<path style="fill:#E8E8E8;" d="M1582.973,568.777l36.613,36.613l-36.613,36.611l-36.611-36.611L1582.973,568.777 M1582.973,564.2
		l-41.188,41.189l41.188,41.188l41.189-41.188L1582.973,564.2L1582.973,564.2z"/>
</g>
<text transform="matrix(1 0 0 1 1516.8691 699.144)" style="fill:#4C4B49; font-family:'ChaparralPro-Regular'; font-size:20.5268; letter-spacing:1;">EXPIREMENT</text>
<line style="fill:none;stroke:#E8E8E8;stroke-width:3.079;stroke-miterlimit:10;" x1="1590.74" y1="597.93" x2="1564.251" y2="624.419"/>
<line style="fill:none;stroke:#E8E8E8;stroke-width:3.079;stroke-miterlimit:10;" x1="1583.946" y1="590.542" x2="1575.02" y2="599.468"/>
<line style="fill:none;stroke:#E8E8E8;stroke-width:3.079;stroke-miterlimit:10;" x1="1591.33" y1="599.488" x2="1582.384" y2="590.542"/>
<line style="fill:none;stroke:#E8E8E8;stroke-width:3.079;stroke-miterlimit:10;" x1="1575.662" y1="598.031" x2="1602.15" y2="624.52"/>
<g>
	<path style="fill:#E8E8E8;" d="M983.082,568.829l36.612,36.612l-36.612,36.612l-36.613-36.612L983.082,568.829 M983.082,564.252
		l-41.189,41.189l41.189,41.189l41.189-41.189L983.082,564.252L983.082,564.252z"/>
</g>
<text transform="matrix(1 0 0 1 942.4521 699.1963)" style="fill:#4C4B49; font-family:'ChaparralPro-Regular'; font-size:20.5268; letter-spacing:1;">UTILIZE</text>
<line style="fill:none;stroke:#E8E8E8;stroke-width:3.079;stroke-miterlimit:10;" x1="996.323" y1="592.508" x2="969.834" y2="618.997"/>
<line style="fill:none;stroke:#E8E8E8;stroke-width:3.079;stroke-miterlimit:10;" x1="1000.799" y1="613.433" x2="991.243" y2="622.989"/>
<line style="fill:none;stroke:#E8E8E8;stroke-width:3.079;stroke-miterlimit:10;" x1="975.277" y1="587.912" x2="965.722" y2="597.467"/>
<line style="fill:none;stroke:#E8E8E8;stroke-width:3.079;stroke-miterlimit:10;" x1="975.035" y1="623.231" x2="965.479" y2="613.675"/>
<line style="fill:none;stroke:#E8E8E8;stroke-width:3.079;stroke-miterlimit:10;" x1="1000.677" y1="597.83" x2="991.122" y2="588.274"/>
<line style="fill:none;stroke:#E8E8E8;stroke-width:3.079;stroke-miterlimit:10;" x1="969.955" y1="592.266" x2="996.443" y2="618.755"/>
<g>
	<path style="fill:#E8E8E8;" d="M1385.424,568.264l36.612,36.613l-36.612,36.611l-36.612-36.611L1385.424,568.264 M1385.424,563.688
		l-41.188,41.189l41.188,41.188l41.188-41.188L1385.424,563.688L1385.424,563.688z"/>
</g>
<text transform="matrix(1 0 0 1 1308.1494 698.6313)" style="fill:#4C4B49; font-family:'ChaparralPro-Regular'; font-size:20.5268; letter-spacing:1;">COLLABORATE</text>
<line style="fill:none;stroke:#E8E8E8;stroke-width:3.079;stroke-miterlimit:10;" x1="1405.003" y1="585.312" x2="1366.108" y2="624.206"/>
<line style="fill:none;stroke:#E8E8E8;stroke-width:3.079;stroke-miterlimit:10;" x1="1404.833" y1="624.206" x2="1365.938" y2="585.312"/>
<g>
	<path style="fill:#E8E8E8;" d="M1385.445,596.744l8.127,8.126l-8.127,8.127l-8.127-8.127L1385.445,596.744 M1385.445,592.389
		l-12.481,12.481l12.481,12.482l12.481-12.482L1385.445,592.389L1385.445,592.389z"/>
</g>
<g>
	<path style="fill:#E8E8E8;" d="M1392.834,1197.821c15.574,0,28.245,12.671,28.245,28.244s-12.671,28.244-28.245,28.244
		c-15.573,0-28.243-12.671-28.243-28.244S1377.261,1197.821,1392.834,1197.821 M1392.834,1194.291
		c-17.548,0-31.773,14.226-31.773,31.774s14.226,31.774,31.773,31.774c17.55,0,31.775-14.226,31.775-31.774
		S1410.384,1194.291,1392.834,1194.291L1392.834,1194.291z"/>
</g>
<g>
	<path style="fill:#E8E8E8;" d="M1392.834,1213.025c7.19,0,13.041,5.85,13.041,13.04s-5.851,13.041-13.041,13.041
		c-7.189,0-13.039-5.851-13.039-13.041S1385.645,1213.025,1392.834,1213.025 M1392.834,1209.495c-9.151,0-16.569,7.418-16.569,16.57
		c0,9.153,7.418,16.571,16.569,16.571c9.153,0,16.571-7.418,16.571-16.571C1409.405,1216.913,1401.987,1209.495,1392.834,1209.495
		L1392.834,1209.495z"/>
</g>
<text transform="matrix(1 0 0 1 1344.8848 1320.3232)" style="fill:#4C4B49; font-family:'ChaparralPro-Regular'; font-size:18.8162;">HARMONY</text>
<g>
	<circle style="fill:#EDEDED;" cx="1392.855" cy="1226.391" r="2.773"/>
</g>
<g>
	<path style="fill:#E8E8E8;" d="M1590.86,890l20.14,19.799V946h-56v-56h36 M1592.319,886H1551v64h64v-41.667L1592.319,886
		L1592.319,886z"/>
</g>
<text transform="matrix(1 0 0 1 1528.0713 1011.3311)" style="fill:#4C4B49; font-family:'ChaparralPro-Regular'; font-size:20.5268; letter-spacing:1;">RESEARCH </text>
<line style="fill:none;stroke:#E8E8E8;stroke-width:3;stroke-miterlimit:10;" x1="1590.5" y1="909" x2="1590.5" y2="887"/>
<line style="fill:none;stroke:#E8E8E8;stroke-width:3;stroke-miterlimit:10;" x1="1589" y1="910.5" x2="1613" y2="910.5"/>
<g>
	<path style="fill:#E8E8E8;" d="M2010,887v56h-57v-56H2010 M2013,883h-63v64h63V883L2013,883z"/>
</g>
<text transform="matrix(1 0 0 1 1957.9912 997.6426)"><tspan x="0" y="0" style="fill:#4C4B49; font-family:'ChaparralPro-Regular'; font-size:20.5268; letter-spacing:1;">USER</tspan><tspan x="-36.588" y="22.237" style="fill:#4C4B49; font-family:'ChaparralPro-Regular'; font-size:20.5268; letter-spacing:1;">EXPERIENCE</tspan></text>
<line style="fill:none;stroke:#E8E8E8;stroke-width:4;stroke-miterlimit:10;" x1="1972" y1="928" x2="1972" y2="913"/>
<line style="fill:none;stroke:#E8E8E8;stroke-width:4;stroke-miterlimit:10;" x1="1993" y1="917" x2="1993" y2="901"/>
<line style="fill:none;stroke:#E8E8E8;stroke-width:3;stroke-miterlimit:10;" x1="1971" y1="915.5" x2="1992" y2="915.5"/>
<line style="fill:none;stroke:#E8E8E8;stroke-width:3;stroke-miterlimit:10;" x1="1972" y1="926.5" x2="2013" y2="926.5"/>
<line style="fill:none;stroke:#E8E8E8;stroke-width:3;stroke-miterlimit:10;" x1="1952" y1="902.5" x2="1992" y2="902.5"/>
<g>
	<path style="fill:#E8E8E8;" d="M1808,890v56h-56v-56H1808 M1812,886h-64v64h64V886L1812,886z"/>
</g>
<text transform="matrix(1 0 0 1 1747.2227 1011.3311)" style="fill:#4C4B49; font-family:'ChaparralPro-Regular'; font-size:20.5268; letter-spacing:1;">ORDER</text>
<line style="fill:none;stroke:#E8E8E8;stroke-width:3;stroke-miterlimit:10;" x1="1779.5" y1="928" x2="1779.5" y2="907"/>
<line style="fill:none;stroke:#E8E8E8;stroke-width:3;stroke-miterlimit:10;" x1="1770.5" y1="948" x2="1770.5" y2="926"/>
<line style="fill:none;stroke:#E8E8E8;stroke-width:5;stroke-miterlimit:10;" x1="122.5" y1="244" x2="122.5" y2="298"/>
<line style="fill:none;stroke:#E8E8E8;stroke-width:3;stroke-miterlimit:10;" x1="1789.5" y1="948" x2="1789.5" y2="926"/>
<line style="fill:none;stroke:#E8E8E8;stroke-width:3;stroke-miterlimit:10;" x1="1751" y1="927.5" x2="1812" y2="927.5"/>
<g>
	<path style="fill:#E8E8E8;" d="M1812,1197v28.382c0,15.573-12.58,28.244-28.155,28.244c-15.573,0-28.198-12.739-28.198-28.313
		c0-15.572,12.716-28.312,28.289-28.312H1812 M1816,1194c0,0-22.611,0-32.064,0c-17.549,0-31.773,14.028-31.773,31.578
		c0,17.549,14.369,31.676,31.918,31.676s31.92-14.323,31.92-31.872C1816,1217.283,1816,1194,1816,1194L1816,1194z"/>
</g>
<text transform="matrix(1 0 0 1 1742.5996 1319.6387)" style="fill:#4C4B49; font-family:'ChaparralPro-Regular'; font-size:18.8162;">MODERN</text>
<line style="fill:none;stroke:#E8E8E8;stroke-width:3;stroke-miterlimit:10;" x1="1784.5" y1="1214" x2="1784.5" y2="1237"/>
<line style="fill:none;stroke:#E8E8E8;stroke-width:3;stroke-miterlimit:10;" x1="1772" y1="1225.5" x2="1796" y2="1225.5"/>
<g>
	<path style="fill:#E8E8E8;" d="M1584.428,1197.138c15.575,0,28.246,12.671,28.246,28.244s-12.671,28.244-28.246,28.244
		c-15.573,0-28.243-12.671-28.243-28.244S1568.854,1197.138,1584.428,1197.138 M1584.428,1193.607
		c-17.548,0-31.773,14.225-31.773,31.774c0,17.549,14.226,31.774,31.773,31.774c17.551,0,31.776-14.226,31.776-31.774
		C1616.204,1207.832,1601.979,1193.607,1584.428,1193.607L1584.428,1193.607z"/>
</g>
<g>
	<path style="fill:#E8E8E8;" d="M1789.293,1525.376c11.136,0,20.194,9.058,20.194,20.192c0,11.134-9.059,20.191-20.194,20.191
		c-11.133,0-20.19-9.058-20.19-20.191C1769.103,1534.434,1778.16,1525.376,1789.293,1525.376 M1789.293,1522.852
		c-12.545,0-22.715,10.169-22.715,22.717c0,12.546,10.17,22.716,22.715,22.716c12.549,0,22.719-10.17,22.719-22.716
		C1812.012,1533.021,1801.842,1522.852,1789.293,1522.852L1789.293,1522.852z"/>
</g>
<g>
	<path style="fill:#E8E8E8;" d="M1978.428,1515.607c15.867,0,28.776,12.908,28.776,28.774s-12.909,28.774-28.776,28.774
		c-15.865,0-28.773-12.908-28.773-28.774S1962.562,1515.607,1978.428,1515.607 M1978.428,1512.607
		c-17.548,0-31.773,14.225-31.773,31.774c0,17.549,14.226,31.774,31.773,31.774c17.551,0,31.776-14.226,31.776-31.774
		C2010.204,1526.832,1995.979,1512.607,1978.428,1512.607L1978.428,1512.607z"/>
</g>
<text transform="matrix(1 0 0 1 1533.4287 1319.6387)" style="fill:#4C4B49; font-family:'ChaparralPro-Regular'; font-size:18.8162;">SYMMETRY</text>
<line style="fill:none;stroke:#E8E8E8;stroke-width:3;stroke-miterlimit:10;" x1="1584.5" y1="1195" x2="1584.5" y2="1256"/>
<line style="fill:none;stroke:#E8E8E8;stroke-width:3;stroke-miterlimit:10;" x1="1751" y1="908.5" x2="1812" y2="908.5"/>
<g>
	<path style="fill:#E8E8E8;" d="M1410,889v56h-57v-56H1410 M1413,885h-63v64h63V885L1413,885z"/>
</g>
<text transform="matrix(1 0 0 1 1330.3936 1010.4756)" style="fill:#4C4B49; font-family:'ChaparralPro-Regular'; font-size:20.5268; letter-spacing:1;">STRATEGY</text>
<line style="fill:none;stroke:#E8E8E8;stroke-width:3.4211;stroke-miterlimit:10;" x1="1352.432" y1="946.043" x2="1410.369" y2="888.106"/>
<line style="fill:none;stroke:#E8E8E8;stroke-width:3.4211;stroke-miterlimit:10;" x1="1410.197" y1="946.043" x2="1352.259" y2="888.106"/>
<line style="fill:none;stroke:#E8E8E8;stroke-width:3;stroke-miterlimit:10;" x1="1434" y1="1549.5" x2="1352" y2="1549.5"/>
<line style="fill:none;stroke:#E8E8E8;stroke-width:3;stroke-miterlimit:10;" x1="1434" y1="1522.5" x2="1367" y2="1522.5"/>
<g>
	<polygon style="fill:#0C0C0C;stroke:#000000;stroke-width:0.1711;stroke-miterlimit:10;" points="1349.014,946.834 
		1346.595,940.823 1353.61,933.808 1356.028,939.818 	"/>
</g>
<g>
	
		<rect x="1381.677" y="915.604" transform="matrix(0.7069 0.7073 -0.7073 0.7069 1057.0812 -709.7092)" style="fill:#0C0C0C;stroke:#000000;stroke-width:0.1711;stroke-miterlimit:10;" width="6.325" height="9.921"/>
</g>
<g>
	
		<rect x="1374.699" y="908.846" transform="matrix(0.7073 0.7069 -0.7069 0.7073 1049.3218 -706.4867)" style="fill:#0C0C0C;stroke:#000000;stroke-width:0.1711;stroke-miterlimit:10;" width="6.082" height="9.922"/>
</g>
<g>
	<polygon style="fill:#0C0C0C;stroke:#000000;stroke-width:0.1711;stroke-miterlimit:10;" points="1346.596,893.463 
		1349.014,887.451 1356.029,894.467 1353.61,900.478 	"/>
</g>
<g>
	<polygon style="fill:#0C0C0C;stroke:#000000;stroke-width:0.1711;stroke-miterlimit:10;" points="1413.651,887.451 
		1416.071,893.463 1409.055,900.478 1406.636,894.467 	"/>
</g>
<g>
	<polygon style="fill:#0C0C0C;stroke:#000000;stroke-width:0.1711;stroke-miterlimit:10;" points="1416.071,940.822 
		1413.651,946.834 1406.636,939.818 1409.055,933.808 	"/>
</g>
<g>
	<path style="fill:#E8E8E8;" d="M1981.137,568.435l36.611,36.613l-36.611,36.611l-36.613-36.611L1981.137,568.435 M1981.137,563.858
		l-41.189,41.189l41.189,41.188l41.188-41.188L1981.137,563.858L1981.137,563.858z"/>
</g>
<text transform="matrix(1 0 0 1 1941.8086 698.8032)" style="fill:#4C4B49; font-family:'ChaparralPro-Regular'; font-size:20.5268; letter-spacing:1;">CREATE</text>
<line style="fill:none;stroke:#E8E8E8;stroke-width:4;stroke-miterlimit:10;" x1="1981" y1="642" x2="1981" y2="597"/>
<line style="fill:none;stroke:#E8E8E8;stroke-width:4;stroke-miterlimit:10;" x1="1990" y1="634" x2="1990" y2="588"/>
<line style="fill:none;stroke:#E8E8E8;stroke-width:4;stroke-miterlimit:10;" x1="1971" y1="634" x2="1971" y2="588"/>
<text transform="matrix(1 0 0 1 952.188 1009.2793)" style="fill:#4C4B49; font-family:'ChaparralPro-Regular'; font-size:18.8162;">SOLVE</text>
<line style="fill:none;stroke:#E8E8E8;stroke-width:3;stroke-miterlimit:10;" x1="949" y1="920.5" x2="975" y2="920.5"/>
<line style="fill:none;stroke:#E8E8E8;stroke-width:3;stroke-miterlimit:10;" x1="988" y1="920.5" x2="1013" y2="920.5"/>
<line style="fill:none;stroke:#E8E8E8;stroke-width:3;stroke-miterlimit:10;" x1="973" y1="906.5" x2="990" y2="906.5"/>
<line style="fill:none;stroke:#E8E8E8;stroke-width:3;stroke-miterlimit:10;" x1="973.5" y1="905" x2="973.5" y2="922"/>
<line style="fill:none;stroke:#E8E8E8;stroke-width:3;stroke-miterlimit:10;" x1="990.5" y1="905" x2="990.5" y2="922"/>
<g>
	<path style="fill:#E8E8E8;" d="M1010,888v56h-57v-56H1010 M1013,884h-63v64h63V884L1013,884z"/>
</g>
<g>
	<path style="fill:#E8E8E8;" d="M1173,898v11h-11v-11H1173 M1176,895h-18v18h18V895L1176,895z"/>
</g>
<text transform="matrix(1 0 0 1 1135.7021 1009.2793)" style="fill:#4C4B49; font-family:'ChaparralPro-Regular'; font-size:18.8162;">CONTENT</text>
<line style="fill:none;stroke:#E8E8E8;stroke-width:3;stroke-miterlimit:10;" x1="1181" y1="898.5" x2="1203" y2="898.5"/>
<line style="fill:none;stroke:#E8E8E8;stroke-width:3;stroke-miterlimit:10;" x1="1181" y1="910.5" x2="1203" y2="910.5"/>
<line style="fill:none;stroke:#E8E8E8;stroke-width:3;stroke-miterlimit:10;" x1="1157" y1="921.5" x2="1203" y2="921.5"/>
<line style="fill:none;stroke:#E8E8E8;stroke-width:3;stroke-miterlimit:10;" x1="1157" y1="933.5" x2="1203" y2="933.5"/>
<g>
	<path style="fill:#E8E8E8;" d="M1208,888v56h-56v-56H1208 M1212,884h-64v64h64V884L1212,884z"/>
</g>
<text transform="matrix(1 0 0 1 2117.8438 1008.5957)" style="fill:#4C4B49; font-family:'ChaparralPro-Regular'; font-size:18.8162;">TECHNOLOGY</text>
<circle style="fill:none;stroke:#E8E8E8;stroke-width:3.4211;stroke-miterlimit:10;" cx="2181.724" cy="914.771" r="16.239"/>
<g>
	<g>
		<rect x="2176" y="909" style="fill:#E8E8E8;" width="10" height="39"/>
		<path style="fill:#141414;" d="M2183,912v32h-3v-32H2183 M2190,906h-7.225h-3.234H2173v6.434v31.736V951h6.541h3.234H2190v-6.83
			v-31.736V906L2190,906z"/>
	</g>
</g>
<g>
	<path style="fill:#E8E8E8;" d="M2210,887v56h-57v-56H2210 M2213,883h-63v64h63V883L2213,883z"/>
</g>
<text transform="matrix(1 0 0 1 931.332 1320.8359)" style="fill:#4C4B49; font-family:'ChaparralPro-Regular'; font-size:18.8162;">INTRICACY</text>
<g>
	<circle style="fill:#EDEDED;" cx="999.691" cy="1248.457" r="2.773"/>
</g>
<g>
	<circle style="fill:#EDEDED;" cx="1008.043" cy="1237.495" r="2.773"/>
</g>
<g>
	<circle style="fill:#EDEDED;" cx="1010.257" cy="1222.087" r="2.773"/>
</g>
<g>
	<circle style="fill:#EDEDED;" cx="1004.355" cy="1207.683" r="2.773"/>
</g>
<g>
	<circle style="fill:#EDEDED;" cx="991.965" cy="1198.259" r="2.772"/>
</g>
<g>
	<circle style="fill:#EDEDED;" cx="976.508" cy="1196.415" r="2.773"/>
</g>
<g>
	<circle style="fill:#EDEDED;" cx="962.25" cy="1202.664" r="2.773"/>
</g>
<g>
	<circle style="fill:#EDEDED;" cx="953.128" cy="1215.276" r="2.773"/>
</g>
<g>
	<circle style="fill:#EDEDED;" cx="951.658" cy="1230.772" r="2.773"/>
</g>
<g>
	<circle style="fill:#EDEDED;" cx="958.248" cy="1244.877" r="2.773"/>
</g>
<g>
	<circle style="fill:#EDEDED;" cx="971.076" cy="1253.692" r="2.773"/>
</g>
<g>
	<circle style="fill:#EDEDED;" cx="986.604" cy="1254.789" r="2.773"/>
</g>
<g>
	<g>
		<path style="fill:#E8E8E8;" d="M989.245,1300.694c0.331,0,0.331-0.514,0-0.514S988.914,1300.694,989.245,1300.694
			L989.245,1300.694z"/>
	</g>
</g>
<text transform="matrix(1 0 0 1 1104.1216 1318.6113)" style="fill:#4C4B49; font-family:'ChaparralPro-Regular'; font-size:18.8162;">SOPHISTICATION</text>
<g>
	<circle style="fill:#EDEDED;" cx="1182.753" cy="1223.482" r="2.772"/>
</g>
<g>
	<circle style="fill:#EDEDED;" cx="1582.513" cy="1508.244" r="4.627"/>
</g>
<g>
	<circle style="fill:#EDEDED;" cx="1599.513" cy="1527.244" r="4.627"/>
</g>
<g>
	<circle style="fill:#EDEDED;" cx="1561.513" cy="1563.244" r="4.627"/>
</g>
<g>
	<g>
		<path style="fill:#E8E8E8;" d="M1182.731,1195.255c15.574,0,28.244,12.671,28.244,28.245s-12.67,28.244-28.244,28.244
			s-28.244-12.67-28.244-28.244S1167.158,1195.255,1182.731,1195.255 M1182.731,1191.725c-17.549,0-31.774,14.227-31.774,31.775
			s14.226,31.774,31.774,31.774s31.774-14.226,31.774-31.774S1200.28,1191.725,1182.731,1191.725L1182.731,1191.725z"/>
	</g>
</g>
<line style="fill:none;stroke:#E8E8E8;stroke-width:4;stroke-miterlimit:10;" x1="1171" y1="1237" x2="1194" y2="1237"/>
<line style="fill:none;stroke:#E8E8E8;stroke-width:3;stroke-miterlimit:10;" x1="1147" y1="1564.5" x2="1216" y2="1564.5"/>
<g>
	<g>
		<path style="fill:#E8E8E8;" d="M1234.899,1298.471c0.331,0,0.331-0.514,0-0.514S1234.568,1298.471,1234.899,1298.471
			L1234.899,1298.471z"/>
	</g>
</g>
<text transform="matrix(1 0 0 1 2130.3047 1320.6641)" style="fill:#4C4B49; font-family:'ChaparralPro-Regular'; font-size:18.8162;">SIMPLICTY</text>
<g>
	<circle style="fill:#EDEDED;" cx="2179.133" cy="1225.535" r="2.773"/>
</g>
<g>
	<path style="fill:#E8E8E8;" d="M2179.111,1197.309c15.574,0,28.245,12.67,28.245,28.244s-12.671,28.244-28.245,28.244
		s-28.244-12.67-28.244-28.244S2163.537,1197.309,2179.111,1197.309 M2179.111,1193.778c-17.549,0-31.774,14.226-31.774,31.774
		s14.226,31.774,31.774,31.774c17.551,0,31.775-14.226,31.775-31.774S2196.662,1193.778,2179.111,1193.778L2179.111,1193.778z"/>
</g>
<g>
	<g>
		<path style="fill:#E8E8E8;" d="M2231.279,1300.524c0.331,0,0.331-0.514,0-0.514S2230.948,1300.524,2231.279,1300.524
			L2231.279,1300.524z"/>
	</g>
</g>
<text transform="matrix(1 0 0 1 1925.5137 1319.6387)" style="fill:#4C4B49; font-family:'ChaparralPro-Regular'; font-size:18.8162;">ATTRACTION</text>
<g>
	<circle style="fill:#EDEDED;" cx="1984.813" cy="1215.956" r="2.774"/>
</g>
<g>
	<circle style="fill:#EDEDED;" cx="1984.813" cy="1233.062" r="2.774"/>
</g>
<g>
	<circle style="fill:#EDEDED;" cx="1994.049" cy="1224.51" r="2.773"/>
</g>
<g>
	<circle style="fill:#EDEDED;" cx="1984.813" cy="1224.51" r="2.774"/>
</g>
<g>
	<circle style="fill:#EDEDED;" cx="1975.576" cy="1224.51" r="2.773"/>
</g>
<g>
	<path style="fill:#E8E8E8;" d="M1984.791,1196.282c15.574,0,28.244,12.671,28.244,28.244s-12.67,28.244-28.244,28.244
		c-15.573,0-28.243-12.671-28.243-28.244S1969.218,1196.282,1984.791,1196.282 M1984.791,1192.752
		c-17.549,0-31.773,14.227-31.773,31.774c0,17.549,14.225,31.774,31.773,31.774c17.55,0,31.774-14.226,31.774-31.774
		C2016.565,1206.979,2002.341,1192.752,1984.791,1192.752L1984.791,1192.752z"/>
</g>
<line style="fill:none;stroke:#2A2C2D;stroke-miterlimit:10;" x1="1083.5" y1="513" x2="1083.5" y2="740"/>
<line style="fill:none;stroke:#2A2C2D;stroke-miterlimit:10;" x1="1283.5" y1="513" x2="1283.5" y2="740"/>
<line style="fill:none;stroke:#2A2C2D;stroke-miterlimit:10;" x1="1483.5" y1="513" x2="1483.5" y2="740"/>
<line style="fill:none;stroke:#2A2C2D;stroke-miterlimit:10;" x1="1682.5" y1="513" x2="1682.5" y2="740"/>
<line style="fill:none;stroke:#2A2C2D;stroke-miterlimit:10;" x1="1882.5" y1="513" x2="1882.5" y2="740"/>
<line style="fill:none;stroke:#2A2C2D;stroke-miterlimit:10;" x1="2082.5" y1="513" x2="2082.5" y2="740"/>
<line style="fill:none;stroke:#2A2C2D;stroke-miterlimit:10;" x1="1083.5" y1="824" x2="1083.5" y2="1051"/>
<line style="fill:none;stroke:#2A2C2D;stroke-miterlimit:10;" x1="1283.5" y1="824" x2="1283.5" y2="1051"/>
<line style="fill:none;stroke:#2A2C2D;stroke-miterlimit:10;" x1="1483.5" y1="824" x2="1483.5" y2="1051"/>
<line style="fill:none;stroke:#2A2C2D;stroke-miterlimit:10;" x1="1682.5" y1="824" x2="1682.5" y2="1051"/>
<line style="fill:none;stroke:#2A2C2D;stroke-miterlimit:10;" x1="1882.5" y1="824" x2="1882.5" y2="1051"/>
<line style="fill:none;stroke:#2A2C2D;stroke-miterlimit:10;" x1="2082.5" y1="824" x2="2082.5" y2="1051"/>
<line style="fill:none;stroke:#2A2C2D;stroke-miterlimit:10;" x1="1083.5" y1="1135" x2="1083.5" y2="1362"/>
<line style="fill:none;stroke:#2A2C2D;stroke-miterlimit:10;" x1="1283.5" y1="1135" x2="1283.5" y2="1362"/>
<line style="fill:none;stroke:#2A2C2D;stroke-miterlimit:10;" x1="1483.5" y1="1135" x2="1483.5" y2="1362"/>
<line style="fill:none;stroke:#2A2C2D;stroke-miterlimit:10;" x1="1682.5" y1="1135" x2="1682.5" y2="1362"/>
<line style="fill:none;stroke:#2A2C2D;stroke-miterlimit:10;" x1="1882.5" y1="1135" x2="1882.5" y2="1362"/>
<line style="fill:none;stroke:#2A2C2D;stroke-miterlimit:10;" x1="2082.5" y1="1135" x2="2082.5" y2="1362"/>
<polyline style="fill:none;stroke:#2A2C2D;stroke-width:2;stroke-miterlimit:10;" points="906.483,214.271 881,240.002 
	881,1654.041 899.378,1672 2262.568,1672 2280,1654.041 2280,221.002 2261.032,201 1802.667,201 1641,201 1637.883,197.883 "/>
<line style="fill:none;stroke:#2A2C2D;stroke-width:2;stroke-miterlimit:10;" x1="1533.484" y1="197.671" x2="1582.894" y2="247.848"/>
<polyline style="fill:none;stroke:#2A2C2D;stroke-width:2;stroke-miterlimit:10;" points="914.967,205.861 919.682,201 1526,201 "/>
<line style="fill:none;stroke:#2A2C2D;stroke-width:3;stroke-miterlimit:10;" x1="883" y1="426.5" x2="2281" y2="426.5"/>
<line style="fill:none;stroke:#2A2C2D;stroke-width:3;stroke-miterlimit:10;" x1="883" y1="513.5" x2="2281" y2="513.5"/>
<line style="fill:none;stroke:#2A2C2D;stroke-width:3;stroke-miterlimit:10;" x1="883" y1="738.5" x2="2281" y2="738.5"/>
<line style="fill:none;stroke:#2A2C2D;stroke-width:3;stroke-miterlimit:10;" x1="883" y1="825.5" x2="2281" y2="825.5"/>
<line style="fill:none;stroke:#2A2C2D;stroke-width:3;stroke-miterlimit:10;" x1="883" y1="1051.5" x2="2281" y2="1051.5"/>
<line style="fill:none;stroke:#2A2C2D;stroke-width:3;stroke-miterlimit:10;" x1="883" y1="1135.5" x2="2281" y2="1135.5"/>
<text transform="matrix(1 0 0 1 1441.3418 1416.1152)" style="fill:#666256; font-family:'Futura-Medium'; font-size:32.2558; letter-spacing:9;">DISCIPLINES</text>
<text transform="matrix(1 0 0 1 1353.7275 1630.3232)"><tspan x="0" y="0" style="fill:#4C4B49; font-family:'ChaparralPro-Regular'; font-size:18.8162;">MOTION</tspan><tspan x="-6.942" y="22.579" style="fill:#4C4B49; font-family:'ChaparralPro-Regular'; font-size:18.8162;">GRAPHICS</tspan></text>
<text transform="matrix(1 0 0 1 1764.1436 1629.6387)"><tspan x="0" y="0" style="fill:#4C4B49; font-family:'ChaparralPro-Regular'; font-size:18.8162;">WEB</tspan><tspan x="-49.966" y="22.579" style="fill:#4C4B49; font-family:'ChaparralPro-Regular'; font-size:18.8162;">DEVELOPMENT</tspan></text>
<text transform="matrix(1 0 0 1 1554.9453 1629.6387)"><tspan x="0" y="0" style="fill:#4C4B49; font-family:'ChaparralPro-Regular'; font-size:18.8162;">MUSIC</tspan><tspan x="-32.42" y="22.579" style="fill:#4C4B49; font-family:'ChaparralPro-Regular'; font-size:18.8162;">PRODUCTION</tspan></text>
<text transform="matrix(1 0 0 1 946.1587 1630.8359)" style="fill:#4C4B49; font-family:'ChaparralPro-Regular'; font-size:18.8162;">DESIGN</text>
<g>
	<g>
		<path style="fill:#E8E8E8;" d="M989.245,1610.694c0.331,0,0.331-0.514,0-0.514S988.914,1610.694,989.245,1610.694
			L989.245,1610.694z"/>
	</g>
</g>
<text transform="matrix(1 0 0 1 1115.2417 1628.6113)" style="fill:#4C4B49; font-family:'ChaparralPro-Regular'; font-size:18.8162;">ILLUSTRATION</text>
<g>
	<g>
		<path style="fill:#E8E8E8;" d="M1234.899,1608.471c0.331,0,0.331-0.514,0-0.514S1234.568,1608.471,1234.899,1608.471
			L1234.899,1608.471z"/>
	</g>
</g>
<text transform="matrix(1 0 0 1 2155.96 1630.6641)"><tspan x="0" y="0" style="fill:#4C4B49; font-family:'ChaparralPro-Regular'; font-size:18.8162;">USER</tspan><tspan x="-27.97" y="22.579" style="fill:#4C4B49; font-family:'ChaparralPro-Regular'; font-size:18.8162;">INTERFACE</tspan></text>
<g>
	<g>
		<path style="fill:#E8E8E8;" d="M2231.279,1610.524c0.331,0,0.331-0.514,0-0.514S2230.948,1610.524,2231.279,1610.524
			L2231.279,1610.524z"/>
	</g>
</g>
<text transform="matrix(1 0 0 1 1923.1709 1629.6387)" style="fill:#4C4B49; font-family:'ChaparralPro-Regular'; font-size:18.8162;">TYPOGRAPHY</text>
<line style="fill:none;stroke:#2A2C2D;stroke-miterlimit:10;" x1="1083.5" y1="1445" x2="1083.5" y2="1672"/>
<line style="fill:none;stroke:#2A2C2D;stroke-miterlimit:10;" x1="1283.5" y1="1445" x2="1283.5" y2="1672"/>
<line style="fill:none;stroke:#2A2C2D;stroke-miterlimit:10;" x1="1483.5" y1="1445" x2="1483.5" y2="1672"/>
<line style="fill:none;stroke:#2A2C2D;stroke-miterlimit:10;" x1="1682.5" y1="1445" x2="1682.5" y2="1672"/>
<line style="fill:none;stroke:#2A2C2D;stroke-miterlimit:10;" x1="1882.5" y1="1445" x2="1882.5" y2="1672"/>
<line style="fill:none;stroke:#2A2C2D;stroke-miterlimit:10;" x1="2082.5" y1="1445" x2="2082.5" y2="1672"/>
<line style="fill:none;stroke:#2A2C2D;stroke-width:3;stroke-miterlimit:10;" x1="883" y1="1445.5" x2="2281" y2="1445.5"/>
<line style="fill:none;stroke:#2A2C2D;stroke-width:3;stroke-miterlimit:10;" x1="883" y1="1361.5" x2="2281" y2="1361.5"/>
<g style="opacity:0.3;">
	<g>
		<path style="fill:#FFFFFF;" d="M1585.496,215.445v-18.431h-4.297v14.194l-16.765-16.765h14.195v-18.428h2.569v18.428h4.297
			v-14.144l16.716,16.715h-14.146v12.225l6.177-6.177l1.818,1.817L1585.496,215.445z M1570.642,197.014l7.988,7.988v-7.988H1570.642
			z M1588.066,194.443h7.939l-7.939-7.939V194.443z"/>
	</g>
</g>
<text transform="matrix(1 0 0 1 -793.5127 1416.1152)"><tspan x="0" y="0" style="fill:#FFFFFF; font-family:'ChaparralPro-Italic'; font-size:33; letter-spacing:1;">&quot;</tspan><tspan x="11.22" y="0" style="fill:#D8D8D8; font-family:'ChaparralPro-Italic'; font-size:33; letter-spacing:1;">It&apos;s the power of using symbols that</tspan><tspan x="41.017" y="45.956" style="fill:#D8D8D8; font-family:'ChaparralPro-Italic'; font-size:33; letter-spacing:1;"> makes men lords of the earth</tspan><tspan x="443.183" y="45.956" style="fill:#FFFFFF; font-family:'ChaparralPro-Italic'; font-size:33; letter-spacing:1;">&quot;</tspan><tspan x="161.86" y="83.956" style="fill:#7A7A7A; font-family:'ChaparralPro-Italic'; font-size:23.9356;">-Susanne Langer </tspan></text>
<polygon style="fill:none;stroke:#E8E8E8;stroke-width:4;stroke-miterlimit:10;" points="944.631,1561 976.914,1504.666 
	1009.198,1561 "/>
<polygon style="fill:none;stroke:#E8E8E8;stroke-width:3;stroke-linejoin:bevel;stroke-miterlimit:10;" points="993.111,1532.5 
	977.066,1560.5 961.021,1532.5 "/>
<polygon style="fill:none;stroke:#E8E8E8;stroke-width:4;stroke-miterlimit:10;" points="1213.198,1504 1180.915,1560.334 
	1148.631,1504 "/>
<polygon style="stroke:#E8E8E8;stroke-width:4;stroke-miterlimit:10;" points="1360.05,1561 1392.333,1504.666 1424.617,1561 "/>
<polygon style="fill:none;stroke:#E8E8E8;stroke-width:4;stroke-miterlimit:10;" points="1946.05,1563 1978.333,1506.666 
	2010.617,1563 1999.999,1563 "/>
<polygon style="fill:none;stroke:#E8E8E8;stroke-width:4;stroke-miterlimit:10;" points="1750.935,1569 1789.332,1501.995 
	1827.733,1569 1815.104,1569 "/>
<polygon style="fill:none;stroke:#E8E8E8;stroke-width:3;stroke-miterlimit:10;" points="2145.585,1565.5 2179.332,1506.61 
	2213.083,1565.5 2201.982,1565.5 "/>
<polygon style="fill:none;stroke:#E8E8E8;stroke-width:3;stroke-miterlimit:10;" points="2213.081,1504.5 2179.334,1563.39 
	2145.583,1504.5 2156.684,1504.5 "/>
<line style="fill:none;stroke:#E8E8E8;stroke-width:4;stroke-miterlimit:10;" x1="1172" y1="1545" x2="1190" y2="1545"/>
<line style="fill:none;stroke:#E8E8E8;stroke-width:3.4211;stroke-miterlimit:10;" x1="1426.856" y1="1535.792" x2="1359.921" y2="1535.794"/>
<line style="fill:none;stroke:#E8E8E8;stroke-width:3.4211;stroke-miterlimit:10;" x1="1617.856" y1="1507.792" x2="1550.921" y2="1507.794"/>
<line style="fill:none;stroke:#E8E8E8;stroke-width:3.4211;stroke-miterlimit:10;" x1="1617.856" y1="1526.792" x2="1550.921" y2="1526.794"/>
<line style="fill:none;stroke:#E8E8E8;stroke-width:3.4211;stroke-miterlimit:10;" x1="1617.856" y1="1544.792" x2="1550.921" y2="1544.794"/>
<line style="fill:none;stroke:#E8E8E8;stroke-width:3.4211;stroke-miterlimit:10;" x1="1617.856" y1="1562.792" x2="1550.921" y2="1562.794"/>
<line style="fill:none;stroke:#E8E8E8;stroke-width:3.4211;stroke-miterlimit:10;" x1="1450.333" y1="1535.792" x2="1441.921" y2="1535.794"/>
<line style="fill:none;stroke:#E8E8E8;stroke-width:3.4211;stroke-miterlimit:10;" x1="1356.333" y1="1522.792" x2="1351.921" y2="1522.794"/>
<rect x="-856.097" y="442" style="fill:none;" width="578.616" height="852"/>
<text transform="matrix(1 0 0 1 -856.0972 461.6001)"><tspan x="0" y="0" style="fill:#727272; font-family:'Quicksand-Regular'; font-size:28; letter-spacing:1;">The ability of abstraction is</tspan><tspan x="0" y="46" style="fill:#727272; font-family:'Quicksand-Regular'; font-size:28; letter-spacing:1;">fundamental to the uniqueness of </tspan><tspan x="0" y="92" style="fill:#727272; font-family:'Quicksand-Regular'; font-size:28; letter-spacing:1;">the human mind. Abstract thoughts </tspan><tspan x="0" y="138" style="fill:#727272; font-family:'Quicksand-Regular'; font-size:28; letter-spacing:1;">allow generalization and symbols</tspan><tspan x="0" y="184" style="fill:#727272; font-family:'Quicksand-Regular'; font-size:28; letter-spacing:1;">such as, language, mathematical</tspan><tspan x="0" y="230" style="fill:#727272; font-family:'Quicksand-Regular'; font-size:28; letter-spacing:1;">notation, and other ways to learn</tspan><tspan x="0" y="276" style="fill:#727272; font-family:'Quicksand-Regular'; font-size:28; letter-spacing:1;">and transmit knowledge.</tspan><tspan x="0" y="368" style="fill:#727272; font-family:'Quicksand-Regular'; font-size:28; letter-spacing:1;">As a designer I excercise the ability</tspan><tspan x="0" y="414" style="fill:#727272; font-family:'Quicksand-Regular'; font-size:28; letter-spacing:1;">to convey codefied visuals </tspan><tspan x="0" y="460" style="fill:#727272; font-family:'Quicksand-Regular'; font-size:28; letter-spacing:1;">seamlessly. The art of abstracting </tspan><tspan x="0" y="506" style="fill:#727272; font-family:'Quicksand-Regular'; font-size:28; letter-spacing:1;">creates visual language. When done </tspan><tspan x="0" y="552" style="fill:#727272; font-family:'Quicksand-Regular'; font-size:28; letter-spacing:1;">properly the viewer is able to digest </tspan><tspan x="0" y="598" style="fill:#727272; font-family:'Quicksand-Regular'; font-size:28; letter-spacing:1;">more information with less effort </tspan><tspan x="0" y="644" style="fill:#727272; font-family:'Quicksand-Regular'; font-size:28; letter-spacing:1;">and without confusion. It is visual </tspan><tspan x="0" y="690" style="fill:#727272; font-family:'Quicksand-Regular'; font-size:28; letter-spacing:1;">appeal with ergonomics.</tspan><tspan x="0" y="782" style="fill:#727272; font-family:'Quicksand-Regular'; font-size:28; letter-spacing:1;">Design serves a purpose. </tspan><tspan x="0" y="828" style="fill:#727272; font-family:'Quicksand-Regular'; font-size:28; letter-spacing:1;">Effectiveness is paramount.</tspan></text>
<g>
	<polyline style="fill:none;stroke:#565656;stroke-width:1.0824;stroke-miterlimit:10;" points="375.992,386.581 396.068,406.658 
		430.333,372.395 439.028,381.09 	"/>
	<polyline style="fill:none;stroke:#565656;stroke-width:1.0824;stroke-miterlimit:10;" points="416.215,381.713 396.074,361.57 
		361.811,395.834 353.114,387.139 	"/>
	<polyline style="fill:none;stroke:#565656;stroke-miterlimit:10;" points="429,387.5 729.5,387.5 729.5,1332.5 713,1348.5 
		68,1348.5 	"/>
	<polyline style="fill:none;stroke:#565656;stroke-miterlimit:10;" points="364,380.5 83,380.5 66.5,397 66.5,1319 46.315,1339.648 
		59.25,1354.25 	"/>
	<polyline style="fill:none;stroke:#565656;stroke-width:1.0824;stroke-miterlimit:10;" points="410.274,397.801 414.826,402.353 
		429.597,387.581 	"/>
	<polyline style="fill:none;stroke:#565656;stroke-width:1.0824;stroke-miterlimit:10;" points="381.426,370.286 377.681,366.542 
		363.341,380.882 	"/>
</g>
<g style="opacity:0.7;">
	<polyline style="fill:none;stroke:#565656;stroke-width:1.0824;stroke-miterlimit:10;" points="1571.992,1780.581 
		1592.068,1800.658 1626.332,1766.395 1635.027,1775.09 	"/>
	<polyline style="fill:none;stroke:#565656;stroke-width:1.0824;stroke-miterlimit:10;" points="1612.215,1775.713 
		1592.074,1755.57 1557.811,1789.834 1549.114,1781.139 	"/>
	<line style="fill:none;stroke:#565656;stroke-miterlimit:10;" x1="1625" y1="1781.5" x2="2283" y2="1781.5"/>
	<line style="fill:none;stroke:#565656;stroke-miterlimit:10;" x1="877" y1="1774.5" x2="1560" y2="1774.5"/>
	<polyline style="fill:none;stroke:#565656;stroke-width:1.0824;stroke-miterlimit:10;" points="1606.273,1791.801 
		1610.826,1796.353 1625.598,1781.581 	"/>
	<polyline style="fill:none;stroke:#565656;stroke-width:1.0824;stroke-miterlimit:10;" points="1577.426,1764.286 
		1573.682,1760.542 1559.342,1774.882 	"/>
</g>
<polyline style="fill:none;stroke:#2A2C2D;stroke-width:2;stroke-miterlimit:10;" points="890,237 890,254 884,259.833 "/>
<polyline style="fill:none;stroke:#2A2C2D;stroke-width:2;stroke-miterlimit:10;" points="940.022,203.811 934,210 898,210 890,210 
	890,225 "/>
<polyline style="fill:none;stroke:#2A2C2D;stroke-width:2;stroke-miterlimit:10;" points="1583.496,143.306 1525.785,201 1523,201 
	"/>
<polyline style="fill:none;stroke:#2A2C2D;stroke-width:2;stroke-miterlimit:10;" points="1436.768,197.766 1444.5,190 1526,190 
	1528.691,192.691 "/>
<rect x="1546.531" y="158.624" transform="matrix(0.7071 0.7071 -0.7071 0.7071 602.1132 -1062.4248)" style="opacity:0.4;fill:none;stroke:#2A2C2D;stroke-width:2.2071;stroke-miterlimit:10;" width="73.939" height="73.939"/>
<polyline style="fill:none;stroke:#2A2C2D;stroke-width:2;stroke-miterlimit:10;" points="1554.83,223.335 1550.393,228 1533,210 
	1491,210 1484.635,203.635 "/>
<polyline style="fill:none;stroke:#2A2C2D;stroke-width:2;stroke-miterlimit:10;" points="1429,205.861 1423.181,211.681 
	1416.431,204.931 "/>
<line style="fill:none;stroke:#2A2C2D;stroke-width:2;stroke-miterlimit:10;" x1="1633.551" y1="193.59" x2="1584.033" y2="143.306"/>
<line style="fill:none;stroke:#2A2C2D;stroke-width:2;stroke-miterlimit:10;" x1="1583.467" y1="247.694" x2="1641.07" y2="190.07"/>
<polyline style="fill:none;stroke:#2A2C2D;stroke-width:2;stroke-miterlimit:10;" points="1718.159,204.312 1710.427,212 
	1628.927,212 1626.235,209.347 "/>
<polyline style="fill:none;stroke:#2A2C2D;stroke-width:2;stroke-miterlimit:10;" points="1641,190 1684.927,190 1691.328,196.442 
	"/>
<polyline style="fill:none;stroke:#2A2C2D;stroke-width:2;stroke-miterlimit:10;" points="1615.097,170.818 1619.534,166.077 
	1638.677,185.654 "/>
<polyline style="fill:none;stroke:#2A2C2D;stroke-width:2;stroke-miterlimit:10;" points="1725.927,196.292 1731.746,190.473 
	1738.496,197.223 "/>
<text transform="matrix(1 0 0 1 1279.0098 374.1963)" style="fill:#4C4B49; font-family:'ChaparralPro-LightIt'; font-size:22; letter-spacing:2;">the study of visual symbols used to represent ideas or objects</text>
<polyline style="fill:none;stroke:#565656;stroke-miterlimit:10;" points="-10.5,1326 -10.5,1335 -10.5,1341 "/>
<polyline style="fill:none;stroke:#565656;stroke-miterlimit:10;" points="729,1527.5 451.458,1527.5 444.35,1534.172 
	438.046,1527.65 424.202,1541.386 431.433,1548.562 438.108,1541.119 424.202,1527.199 417.032,1534.627 409.646,1527.5 349,1527.5 
	136.5,1527 136.5,1432.065 121.353,1416.972 137.5,1400.773 137.5,1373.5 711,1373.5 728.5,1390.917 728.5,1527 "/>
<polyline style="fill:none;stroke:#565656;stroke-miterlimit:10;" points="109.572,1414.842 121.014,1403.258 134.518,1416.926 
	121.114,1430.202 101.738,1410.931 91.834,1420.835 "/>
<polyline style="fill:none;stroke:#565656;stroke-miterlimit:10;" points="68.641,1348.964 54.255,1363.439 58.817,1367.837 "/>
<polyline style="fill:none;stroke:#565656;stroke-miterlimit:10;" points="105.884,1418.971 100.332,1424.5 53.989,1424.5 
	54.639,1378.381 69.567,1364.09 63.994,1358.522 "/>
</svg>
