<?xml version="1.0" encoding="utf-8"?>
<!-- Generator: Adobe Illustrator 18.0.0, SVG Export Plug-In . SVG Version: 6.00 Build 0)  -->
<!DOCTYPE svg PUBLIC "-//W3C//DTD SVG 1.1//EN" "http://www.w3.org/Graphics/SVG/1.1/DTD/svg11.dtd">
<svg version="1.1" id="Layer_1" xmlns="http://www.w3.org/2000/svg" xmlns:xlink="http://www.w3.org/1999/xlink" x="0px" y="0px"
	 viewBox="0 0 1000 1000" enable-background="new 0 0 1000 1000" xml:space="preserve">
<path opacity="0.15" fill="#FFFFFF" d="M358.2,710.2c-69.1,0-138.1,0-207.2,0c0-144.8,0-289.5,0-434.3c71.6,0,143.2,0,214.8,0
	c0.5,0.1,1,0.2,1.5,0.2c10.4,0.4,20.7,1.4,31,3.3c15.2,2.8,29.8,7.3,43.3,15c22.9,12.9,38.3,32,46.2,57.1
	c3.2,10.2,4.8,20.7,5.2,31.3c0.5,12.2-0.4,24.2-3.4,36.1c-3.6,14.5-10.3,27.5-20.9,38.2c-7.9,8-17.3,14-27.3,19.2
	c-0.4,0.2-0.8,0.5-1.4,0.8c0.6,0.2,0.9,0.3,1.2,0.5c12.6,4.8,24.1,11.2,34,20.4c13.9,12.8,22.6,28.5,27.4,46.6
	c4.2,15.8,5,32,3.6,48.3c-1.7,19.4-7.6,37.4-17.7,54.1c-20,33-49.2,52.3-87.2,58.7c-11.9,2-23.9,3.5-36,4.1
	C363,709.8,360.6,710,358.2,710.2z M251.3,634.8c0.7,0,1.3,0,2,0c27.7,0,55.3,0,83,0c6.2,0,12.4-0.1,18.5-0.4
	c8.2-0.4,16.3-1.6,24.1-4.1c16.1-5.1,27.2-15.4,32.7-31.5c3.9-11.6,4.7-23.6,3.2-35.7c-0.9-7.5-3.3-14.6-7.6-20.9
	c-6.5-9.5-15.7-15.2-26.5-18.6c-10.6-3.3-21.5-4.5-32.5-4.6c-31.9-0.2-63.9-0.1-95.8-0.1c-0.4,0-0.7,0-1.1,0.1
	C251.3,557.6,251.3,596.1,251.3,634.8z M251.3,447.1c0.7,0,1.3,0,1.9,0c29.3,0,58.7,0,88,0c4.9,0,9.8-0.2,14.7-0.6
	c9.7-0.8,19-3.1,27.8-7.2c8.4-3.9,15.1-9.6,18.7-18.3c5.2-12.5,5.6-25.5,2.2-38.5c-3.4-13.2-11.9-21.7-25-25.5
	c-13.8-4-28.1-5.5-42.4-5.6c-28.2-0.1-56.4-0.1-84.6-0.1c-0.4,0-0.9,0.1-1.3,0.1C251.3,383.4,251.3,415.2,251.3,447.1z"/>
<path opacity="0.15" fill="#FFFFFF" d="M848.9,564.1c-75.5,0-150.9,0-226.5,0c0.1,1.8,0.2,3.4,0.3,5.1c1,12.3,3.4,24.2,9,35.2
	c7.6,15.1,19.7,25.2,35.3,31.4c12.2,4.8,25,6.1,38,5.5c10.8-0.5,21.2-2.8,30.8-8c10.8-5.8,18.7-14.6,24.5-25.3c1-1.7,2-2.2,3.9-2.2
	c26.2,0.1,52.4,0,78.6,0c0.5,0,1.1,0,2,0c-0.8,3.6-1.4,7.1-2.3,10.5c-3.5,12.8-10.1,23.9-18.2,34.3c-12.4,15.8-26.9,29.1-44.8,38.5
	c-14,7.4-28.9,12.3-44.5,15.1c-16,2.9-32.2,3.8-48.4,2.9c-38-2.1-71.7-15.4-100.9-39.9c-14.2-11.9-24.3-26.8-31.4-43.7
	c-6.1-14.6-9.7-29.8-11.7-45.4c-1.9-15-2.4-30-1.8-45c0.8-19.7,3.5-39,9.7-57.8c13.4-40.3,39.7-68.8,78.6-85.7
	c14.3-6.2,29.4-9.6,44.9-11.2c20.1-2,40.1-1.3,59.9,2.8c20.5,4.2,39.6,11.5,56.6,24c14.7,10.8,26.2,24.4,35.5,39.9
	c9.8,16.3,16,33.9,19.4,52.5c1.8,10,2.6,20.2,3,30.3c0.2,3.5,0.3,7,0.5,10.5C848.9,547,848.9,555.5,848.9,564.1z M764.8,510.3
	c-1-5.7-1.6-11.2-2.9-16.5c-5.2-21.6-18.4-36.4-39-44.4c-15.2-5.9-30.9-6.3-46.8-3.1c-15.1,3-27.2,10.8-36.3,23.3
	c-8.8,12.2-13.2,26-15.5,40.7C671,510.3,717.7,510.3,764.8,510.3z"/>
<path opacity="0.15" fill="#FFFFFF" d="M606.5,337.2c0-14.5,0-28.8,0-43.2c58.2,0,116.4,0,174.7,0c0,14.4,0,28.7,0,43.2
	C723,337.2,664.8,337.2,606.5,337.2z"/>
</svg>
