<?xml version="1.0" encoding="utf-8"?>
<!-- Generator: Adobe Illustrator 18.0.0, SVG Export Plug-In . SVG Version: 6.00 Build 0)  -->
<!DOCTYPE svg PUBLIC "-//W3C//DTD SVG 1.1//EN" "http://www.w3.org/Graphics/SVG/1.1/DTD/svg11.dtd">
<svg version="1.1" id="Layer_1" xmlns="http://www.w3.org/2000/svg" xmlns:xlink="http://www.w3.org/1999/xlink" x="0px" y="0px"
	 viewBox="0 0 1000 1000" enable-background="new 0 0 1000 1000" xml:space="preserve">
<path opacity="0.15" fill="#FFFFFF" d="M865.4,391.7h-1.6l0.9-0.6L505.2,145.5L140.1,390.8l1.2,0.8h-1.6v207h0.4l-0.4,0.3
	l362.8,253.6l362.5-253.4l-0.7-0.5h1V391.7z M502.6,571.1L403,501.5l102-65.3l98.7,64.2L502.6,571.1z M533.5,383.4V237.3
	l225.9,154.3l-102.8,71.9L533.5,383.4z M473.7,238.8v146.4l-123.7,79.2L246,391.8L473.7,238.8z M199.4,432.3l95.9,67l-95.9,61.4
	V432.3z M348.4,536.4l124.3,86.9v135.4L247.3,601.1L348.4,536.4z M532.5,758.6V623.3l125.3-87.6l100.3,65.2L532.5,758.6z
	 M710.7,498.7l95-66.4v128.2L710.7,498.7z"/>
</svg>
