<?xml version="1.0" encoding="utf-8"?>
<!-- Generator: Adobe Illustrator 18.0.0, SVG Export Plug-In . SVG Version: 6.00 Build 0)  -->
<!DOCTYPE svg PUBLIC "-//W3C//DTD SVG 1.1//EN" "http://www.w3.org/Graphics/SVG/1.1/DTD/svg11.dtd">
<svg version="1.1" id="Layer_1" xmlns="http://www.w3.org/2000/svg" xmlns:xlink="http://www.w3.org/1999/xlink" x="0px" y="0px"
	 width="1000px" height="1000px" viewBox="0 0 1000 1000" style="enable-background:new 0 0 1000 1000;" xml:space="preserve">
<style type="text/css">
	.st0{fill:#FFFFFF;}
</style>
<path class="st0" d="M865.4,424.7h-1.6l0.9-0.6L505.2,178.5L140.1,423.8l1.2,0.8h-1.6v207h0.4l-0.4,0.3l362.8,253.6L865,632.1
	l-0.7-0.5h1V424.7H865.4z M502.6,604.1L403,534.5l102-65.3l98.7,64.2L502.6,604.1z M533.5,416.4V270.3l225.9,154.3l-102.8,71.9
	L533.5,416.4z M473.7,271.8v146.4L350,497.4l-104-72.6L473.7,271.8z M199.4,465.3l95.9,67l-95.9,61.4V465.3z M348.4,569.4
	l124.3,86.9v135.4L247.3,634.1L348.4,569.4z M532.5,791.6V656.3l125.3-87.6l100.3,65.2L532.5,791.6z M710.7,531.7l95-66.4v128.2
	L710.7,531.7z"/>
</svg>
