<?xml version="1.0" encoding="utf-8"?>
<!-- Generator: Adobe Illustrator 18.0.0, SVG Export Plug-In . SVG Version: 6.00 Build 0)  -->
<!DOCTYPE svg PUBLIC "-//W3C//DTD SVG 1.1//EN" "http://www.w3.org/Graphics/SVG/1.1/DTD/svg11.dtd">
<svg version="1.1" id="Layer_1" xmlns="http://www.w3.org/2000/svg" xmlns:xlink="http://www.w3.org/1999/xlink" x="0px" y="0px"
	 viewBox="0 0 60 60" enable-background="new 0 0 60 60" xml:space="preserve">
<g opacity="0.66">
	<g id="_x23_020201ff_2_">
		<path fill="#010101" d="M26,12.5c1.7-1.6,4-2.1,6.3-2.2c2.4,0,4.7,0,7.1,0c0,2.5,0,5,0,7.5c-1.5,0-3.1,0-4.6,0
			c-1-0.1-2,0.7-2.1,1.6c0,1.7,0,3.3,0,5c2.2,0,4.5,0,6.7,0c-0.2,2.4-0.5,4.8-0.8,7.2c-2,0-4,0-6,0c0,7.1,0,14.3,0,21.4
			c-2.9,0-5.9,0-8.8,0c-0.1-7.1,0-14.3,0-21.4c-1.4,0-2.9,0-4.3,0c0-2.4,0-4.8,0-7.2c1.4,0,2.9,0,4.3,0c0-2.3,0-4.7,0-7
			C24,15.6,24.7,13.8,26,12.5z"/>
	</g>
</g>
</svg>
