<?xml version="1.0" encoding="utf-8"?>
<!-- Generator: Adobe Illustrator 18.0.0, SVG Export Plug-In . SVG Version: 6.00 Build 0)  -->
<!DOCTYPE svg PUBLIC "-//W3C//DTD SVG 1.1//EN" "http://www.w3.org/Graphics/SVG/1.1/DTD/svg11.dtd">
<svg version="1.1" id="Layer_1" xmlns="http://www.w3.org/2000/svg" xmlns:xlink="http://www.w3.org/1999/xlink" x="0px" y="0px"
	 viewBox="0 0 60 60" enable-background="new 0 0 60 60" xml:space="preserve">
<path opacity="0.15" fill="#FFFFFF" enable-background="new    " d="M33.4,14.2H12.7v34.6h34.6V28.2V14.2H33.4z M30,24.2
	c4,0,7.3,3.3,7.3,7.3S34,38.8,30,38.8s-7.3-3.3-7.3-7.3S26,24.2,30,24.2z M43.7,45.2H16.3V28h3.4c-0.4,1.1-0.6,2.3-0.6,3.5
	c0,6,4.9,10.9,10.9,10.9s10.9-4.9,10.9-10.9c0-1.2-0.2-2.3-0.5-3.4h3.4L43.7,45.2L43.7,45.2z M43.7,24.6h-4c-1.5,0-2.7-1.2-2.7-2.7
	v-4h6.8V24.6z"/>
</svg>
