<?xml version="1.0" encoding="utf-8"?>
<!-- Generator: Adobe Illustrator 18.0.0, SVG Export Plug-In . SVG Version: 6.00 Build 0)  -->
<!DOCTYPE svg PUBLIC "-//W3C//DTD SVG 1.1//EN" "http://www.w3.org/Graphics/SVG/1.1/DTD/svg11.dtd">
<svg version="1.1" id="Layer_1" xmlns="http://www.w3.org/2000/svg" xmlns:xlink="http://www.w3.org/1999/xlink" x="0px" y="0px"
	 width="1000px" height="1000px" viewBox="0 0 1000 1000" style="enable-background:new 0 0 1000 1000;" xml:space="preserve">
<style type="text/css">
	.st0{fill:#FFFFFF;}
</style>
<path class="st0" d="M556.7,251.7h-345v576.7h576.7V485V251.7H556.7z M500,418.3c66.7,0,121.7,55,121.7,121.7s-55,121.7-121.7,121.7
	s-121.7-55-121.7-121.7S433.3,418.3,500,418.3z M728.3,768.3H271.7V481.7h56.7c-6.7,18.3-10,38.3-10,58.3
	c0,100,81.7,181.7,181.7,181.7S681.7,640,681.7,540c0-20-3.3-38.3-8.3-56.7H730L728.3,768.3L728.3,768.3z M728.3,425h-66.7
	c-25,0-45-20-45-45v-66.7H730V425H728.3z"/>
</svg>
