<?xml version="1.0" encoding="utf-8"?>
<!-- Generator: Adobe Illustrator 18.0.0, SVG Export Plug-In . SVG Version: 6.00 Build 0)  -->
<!DOCTYPE svg PUBLIC "-//W3C//DTD SVG 1.1//EN" "http://www.w3.org/Graphics/SVG/1.1/DTD/svg11.dtd">
<svg version="1.1" id="Layer_2_copy_2" xmlns="http://www.w3.org/2000/svg" xmlns:xlink="http://www.w3.org/1999/xlink" x="0px"
	 y="0px" width="1000px" height="1000px" viewBox="0 0 1000 1000" style="enable-background:new 0 0 1000 1000;"
	 xml:space="preserve">
<style type="text/css">
	.st0{fill:#FFFFFF;}
</style>
<g>
	<path class="st0" d="M236.8,435.5c-13.2,13.8-24.2,29.8-32.2,47.3v243.1c10.1,0,20.9,0,32.2,0V435.5z"/>
	<path class="st0" d="M172.4,510c-10.1-4.3-20.9-7.2-32.2-8.4v224.3c7.9,0,18.9,0,32.2,0V510z"/>
	<path class="st0" d="M108,502.8c-11.4,2.1-22.3,5.9-32.2,11.2v199c9.9,5.3,20.8,9.1,32.2,11.2C108,724.2,108,502.8,108,502.8z"/>
	<path class="st0" d="M397.9,725.9c10.8,0,21.6,0,32.2,0V397.3c-10.2-4.5-21-8.1-32.2-10.6V725.9z"/>
	<path class="st0" d="M878.9,486c-17.4,0-33.8,3.7-48.7,10.3C820,390.1,730.6,307.1,621.8,307.1c-63.9,0-121,28.6-159.4,73.7v345.1
		c71.4,0,132.2,0,154.9,0c1.5,0,3,0.1,4.5,0.1c0,0,222.9,0,257.2,0c66.3,0,120-53.7,120-120C998.9,539.7,945.2,486,878.9,486z"/>
	<path class="st0" d="M301.3,393.3c-11.4,4.2-22.1,9.6-32.2,15.9v316.7c10.5,0,21.2,0,32.2,0V393.3z"/>
	<path class="st0" d="M365.7,382.8c-1.7,0-3.3-0.1-5-0.1c-9.3,0-18.4,0.7-27.2,2.2V726c8.4,0,16.8,0,25.2,0c0.7,0,1.3,0,2,0
		s1.4,0,2,0c1,0,2,0,3,0V382.8z"/>
	<path class="st0" d="M43.6,539.5c-17.3,19.8-27.8,45.7-27.8,74s10.5,54.2,27.8,74V539.5z"/>
</g>
</svg>
