<?xml version="1.0" encoding="utf-8"?>
<!-- Generator: Adobe Illustrator 18.0.0, SVG Export Plug-In . SVG Version: 6.00 Build 0)  -->
<!DOCTYPE svg PUBLIC "-//W3C//DTD SVG 1.1//EN" "http://www.w3.org/Graphics/SVG/1.1/DTD/svg11.dtd">
<svg version="1.1" id="Layer_1" xmlns="http://www.w3.org/2000/svg" xmlns:xlink="http://www.w3.org/1999/xlink" x="0px" y="0px"
	 viewBox="0 0 60 60" enable-background="new 0 0 60 60" xml:space="preserve">
<g opacity="0.66">
	<path fill="#010101" d="M53.1,19.2c-1.7,0.7-3.4,1.2-5.3,1.5c1.9-1.1,3.4-3,4.1-5.1c-1.8,1.1-3.8,1.8-5.9,2.2
		c-1.7-1.8-4.1-2.9-6.7-2.9c-5.1,0-9.2,4.1-9.2,9.2c0,0.7,0.1,1.4,0.2,2.1c-7.7-0.4-14.5-4.1-19-9.6c-0.8,1.4-1.2,3-1.2,4.6
		c0,3.2,1.6,6,4.1,7.7c-1.5,0-2.9-0.5-4.2-1.2c0,0,0,0.1,0,0.1c0,4.5,3.2,8.2,7.4,9.1c-0.8,0.2-1.6,0.3-2.4,0.3
		c-0.6,0-1.2-0.1-1.7-0.2c1.2,3.7,4.6,6.3,8.6,6.4c-3.2,2.5-7.1,4-11.5,4c-0.7,0-1.5,0-2.2-0.1c4.1,2.6,8.9,4.1,14.2,4.1
		c17,0,26.3-14.1,26.3-26.3c0-0.4,0-0.8,0-1.2C50.3,22.6,51.8,21,53.1,19.2z"/>
</g>
</svg>
