<?xml version="1.0" encoding="utf-8"?>
<!-- Generator: Adobe Illustrator 18.0.0, SVG Export Plug-In . SVG Version: 6.00 Build 0)  -->
<!DOCTYPE svg PUBLIC "-//W3C//DTD SVG 1.1//EN" "http://www.w3.org/Graphics/SVG/1.1/DTD/svg11.dtd">
<svg version="1.1" id="Layer_1" xmlns="http://www.w3.org/2000/svg" xmlns:xlink="http://www.w3.org/1999/xlink" x="0px" y="0px"
	 width="1000px" height="1000px" viewBox="0 0 1000 1000" style="enable-background:new 0 0 1000 1000;" xml:space="preserve">
<style type="text/css">
	.st0{fill:#FFFFFF;}
</style>
<path class="st0" d="M216,434C216,432.3,216,432.3,216,434c1.7,0,1.7-1.7,3.3-1.7c23.3-20,46.7-40,68.3-61.7
	c13.3-13.3,28.3-25,43.3-36.7c11.7-8.3,23.3-16.7,35-23.3c13.3-6.7,26.7-10,40-10c16.7,1.7,30,8.3,41.7,20c6.7,6.7,11.7,15,15,23.3
	c6.7,15,11.7,31.7,13.3,48.3c1.7,13.3,3.3,25,6.7,38.3c3.3,18.3,6.7,38.3,10,56.7c3.3,21.7,8.3,43.3,13.3,65
	c3.3,15,8.3,28.3,13.3,41.7c3.3,6.7,6.7,13.3,10,18.3c1.7,3.3,5,5,6.7,6.7c5,3.3,10,5,15,1.7c3.3-1.7,5-3.3,8.3-5
	c6.7-5,11.7-11.7,16.7-18.3c10-11.7,18.3-25,26.7-38.3c10-16.7,20-31.7,26.7-50c5-11.7,10-23.3,10-36.7c0-8.3,1.7-15,0-23.3
	c-3.3-15-11.7-23.3-26.7-26.7c-10-1.7-20-1.7-28.3,0c-10,1.7-18.3,3.3-26.7,8.3H556c0-1.7,0-1.7,0-1.7c5-15,10-30,16.7-43.3
	c8.3-18.3,20-35,35-50c26.7-28.3,60-41.7,98.3-43.3c1.7,0,1.7,0,3.3,0c6.7,0,11.7,0,18.3,0h1.7c6.7,0,13.3,1.7,20,3.3
	c23.3,5,40,18.3,50,40c6.7,15,10,30,11.7,46.7c0,1.7,0,3.3,0,3.3c0,10,0,18.3,0,28.3v1.7c0,10-1.7,18.3-3.3,26.7
	c-3.3,16.7-10,33.3-16.7,50c-11.7,25-25,48.3-40,71.7c-18.3,30-40,58.3-61.7,86.7c-20,25-40,50-61.7,71.7C611,739,594.3,754,576,769
	c-13.3,10-28.3,20-45,26.7c-11.7,5-23.3,8.3-35,11.7c-1.7,0-5,0-6.7,1.7c-3.3,0-6.7,0-10,0h-1.7c-13.3-1.7-25-8.3-35-16.7
	c-6.7-5-11.7-11.7-15-16.7c-8.3-10-15-21.7-20-35c-5-11.7-10-21.7-13.3-33.3c-15-53.3-30-108.3-43.3-161.7c-5-18.3-10-35-16.7-51.7
	c-3.3-10-8.3-21.7-15-30c-3.3-5-6.7-10-11.7-15c-3.3-3.3-6.7-5-11.7-6.7c-3.3-1.7-8.3-1.7-11.7,0c-3.3,1.7-6.7,3.3-10,5
	c-10,6.7-20,13.3-28.3,20l-1.7,1.7c-1.7-3.3-5-6.7-6.7-8.3c-6.7-8.3-13.3-16.7-20-25C217.7,434,217.7,432.3,216,434z"/>
</svg>
