<?xml version="1.0" encoding="utf-8"?>
<!-- Generator: Adobe Illustrator 16.0.0, SVG Export Plug-In . SVG Version: 6.00 Build 0)  -->
<!DOCTYPE svg PUBLIC "-//W3C//DTD SVG 1.1//EN" "http://www.w3.org/Graphics/SVG/1.1/DTD/svg11.dtd">
<svg version="1.1" id="Layer_1" xmlns="http://www.w3.org/2000/svg" xmlns:xlink="http://www.w3.org/1999/xlink" x="0px" y="0px"
	 width="1490px" height="576px" viewBox="0 0 1490 576" style="enable-background:new 0 0 1490 576;" xml:space="preserve">
<style type="text/css">
<![CDATA[
	.st0{fill:none;stroke:#6D6E71;stroke-width:0.5;stroke-miterlimit:10;stroke-dasharray:2.007,4.0139;}
	.st1{fill:none;stroke:#3D3D3F;stroke-width:11.7993;stroke-miterlimit:10;}
	.st2{fill:none;stroke:#6D6E71;stroke-width:0.5;stroke-miterlimit:10;}
	.st3{fill:none;stroke:#6D6E71;stroke-width:0.5;stroke-miterlimit:10;stroke-dasharray:1.9976,3.9952;}
	.st4{fill:none;stroke:#7E7F7F;stroke-width:10.5287;stroke-miterlimit:10;}
	.st5{fill:none;stroke:#6D6E71;stroke-width:0.5;stroke-miterlimit:10;stroke-dasharray:2.0024,4.0047;}
	.st6{fill:none;stroke:#6D6E71;stroke-width:0.5;stroke-miterlimit:10;stroke-dasharray:2.0024,4.0048;}
	.st7{opacity:0.5;fill:none;stroke:#FFFFFF;stroke-width:10.5287;stroke-miterlimit:10;}
	.st8{fill:none;stroke:#6D6E71;stroke-width:0.5;stroke-miterlimit:10;stroke-dasharray:1.998,3.996;}
	.st9{fill:none;stroke:#6D6E71;stroke-width:0.5;stroke-miterlimit:10;stroke-dasharray:1.9919,3.9839;}
	.st10{fill:none;stroke:#6D6E71;stroke-width:0.5;stroke-miterlimit:10;stroke-dasharray:2.0131,4.0263;}
	.st11{fill:#FFFFFF;}
	.st12{opacity:0.5;fill:none;stroke:#FFFFFF;stroke-width:11.7993;stroke-miterlimit:10;}
	.st13{fill:none;stroke:#6D6E71;stroke-width:0.5;stroke-miterlimit:10;stroke-dasharray:1.9898,3.9797;}
	.st14{fill:none;stroke:#6D6E71;stroke-width:0.5;stroke-miterlimit:10;stroke-dasharray:1.9977,3.9955;}
	.st15{fill:none;stroke:#6D6E71;stroke-width:0.5;stroke-miterlimit:10;stroke-dasharray:1.998,3.9959;}
	.st16{fill:#D8D8D8;}
]]>
</style>
<rect y="0.179" class="st16" width="745" height="575.682"/>
<rect x="745" class="st11" width="745" height="575.682"/>
<polyline class="st12" points="354.999,199.339 354.999,346.643 298.187,289.832 412.362,289.832 443.109,289.832 386.522,233.244 
	386.522,366.09 424.95,327.662 "/>
<rect x="204.03" y="118.905" transform="matrix(-0.7071 -0.7071 0.7071 -0.7071 432.6705 753.9253)" class="st7" width="336.897" height="336.897"/>
<polyline class="st1" points="1099.52,200.005 1099.52,347.309 1042.707,290.498 1156.883,290.498 1187.63,290.498 1131.043,233.91 
	1131.043,366.756 1169.471,328.328 "/>
<rect x="948.551" y="119.571" transform="matrix(-0.7071 -0.7071 0.7071 -0.7071 1703.1769 1281.5179)" class="st4" width="336.898" height="336.897"/>
<g>
	<g>
		<line class="st2" x1="348.854" y1="11.428" x2="348.854" y2="12.428"/>
		<line class="st13" x1="348.854" y1="16.407" x2="348.854" y2="563.614"/>
		<line class="st2" x1="348.854" y1="565.604" x2="348.854" y2="566.604"/>
	</g>
</g>
<g>
	<g>
		<line class="st2" x1="361.167" y1="0" x2="361.167" y2="1"/>
		<line class="st0" x1="361.167" y1="5.014" x2="361.167" y2="574.994"/>
		<line class="st2" x1="361.167" y1="577.001" x2="361.167" y2="578.001"/>
	</g>
</g>
<g>
	<g>
		<line class="st2" x1="380.37" y1="0.016" x2="380.37" y2="1.016"/>
		<line class="st0" x1="380.37" y1="5.03" x2="380.37" y2="575.01"/>
		<line class="st2" x1="380.37" y1="577.017" x2="380.37" y2="578.017"/>
	</g>
</g>
<g>
	<g>
		<line class="st2" x1="392.682" y1="11.443" x2="392.682" y2="12.443"/>
		<line class="st13" x1="392.682" y1="16.423" x2="392.682" y2="563.63"/>
		<line class="st2" x1="392.682" y1="565.62" x2="392.682" y2="566.62"/>
	</g>
</g>
<g>
	<g>
		<line class="st2" x1="251.296" y1="106.722" x2="252.003" y2="107.429"/>
		<line class="st8" x1="254.829" y1="110.254" x2="550.101" y2="405.526"/>
		<line class="st2" x1="551.514" y1="406.939" x2="552.221" y2="407.646"/>
	</g>
</g>
<g>
	<g>
		<line class="st2" x1="259.951" y1="97.976" x2="260.658" y2="98.683"/>
		<line class="st15" x1="263.483" y1="101.508" x2="558.752" y2="396.781"/>
		<line class="st2" x1="560.166" y1="398.194" x2="560.873" y2="398.901"/>
	</g>
</g>
<g>
	<g>
		<line class="st2" x1="179.14" y1="179.464" x2="179.847" y2="180.171"/>
		<line class="st9" x1="182.664" y1="182.988" x2="477.045" y2="477.368"/>
		<line class="st2" x1="478.454" y1="478.776" x2="479.161" y2="479.483"/>
	</g>
</g>
<g>
	<g>
		<line class="st2" x1="188.016" y1="170.98" x2="188.723" y2="171.687"/>
		<line class="st9" x1="191.54" y1="174.504" x2="485.919" y2="468.886"/>
		<line class="st2" x1="487.328" y1="470.294" x2="488.035" y2="471.001"/>
	</g>
</g>
<g>
	<g>
		<line class="st2" x1="268.442" y1="492.862" x2="269.149" y2="492.155"/>
		<line class="st6" x1="271.981" y1="489.323" x2="572.151" y2="189.154"/>
		<line class="st2" x1="573.567" y1="187.738" x2="574.274" y2="187.031"/>
	</g>
</g>
<g>
	<g>
		<line class="st2" x1="259.709" y1="484.21" x2="260.416" y2="483.503"/>
		<line class="st5" x1="263.248" y1="480.671" x2="563.418" y2="180.502"/>
		<line class="st2" x1="564.834" y1="179.086" x2="565.542" y2="178.379"/>
	</g>
</g>
<g>
	<g>
		<line class="st2" x1="344.361" y1="563.055" x2="345.068" y2="562.348"/>
		<line class="st10" x1="347.916" y1="559.501" x2="645.43" y2="261.986"/>
		<line class="st2" x1="646.854" y1="260.563" x2="647.561" y2="259.856"/>
	</g>
</g>
<g>
	<g>
		<line class="st2" x1="336.634" y1="555.071" x2="337.341" y2="554.364"/>
		<line class="st10" x1="340.188" y1="551.518" x2="637.703" y2="254.005"/>
		<line class="st2" x1="639.127" y1="252.582" x2="639.834" y2="251.875"/>
	</g>
</g>
<g>
	<g>
		<line class="st2" x1="104.489" y1="324.902" x2="105.196" y2="324.195"/>
		<line class="st10" x1="108.043" y1="321.349" x2="405.557" y2="23.834"/>
		<line class="st2" x1="406.981" y1="22.411" x2="407.688" y2="21.704"/>
	</g>
</g>
<g>
	<g>
		<line class="st2" x1="96.966" y1="316.846" x2="97.673" y2="316.139"/>
		<line class="st10" x1="100.52" y1="313.292" x2="398.034" y2="15.78"/>
		<line class="st2" x1="399.458" y1="14.356" x2="400.165" y2="13.649"/>
	</g>
</g>
<g>
	<g>
		<line class="st2" x1="99.138" y1="258.557" x2="99.845" y2="259.264"/>
		<line class="st10" x1="102.692" y1="262.111" x2="400.205" y2="559.626"/>
		<line class="st2" x1="401.629" y1="561.05" x2="402.336" y2="561.757"/>
	</g>
</g>
<g>
	<g>
		<line class="st2" x1="107.122" y1="250.83" x2="107.829" y2="251.537"/>
		<line class="st10" x1="110.676" y1="254.384" x2="408.188" y2="551.899"/>
		<line class="st2" x1="409.611" y1="553.323" x2="410.318" y2="554.03"/>
	</g>
</g>
<g>
	<g>
		<line class="st2" x1="335.748" y1="20.165" x2="336.455" y2="20.872"/>
		<line class="st10" x1="339.302" y1="23.719" x2="636.816" y2="321.232"/>
		<line class="st2" x1="638.24" y1="322.656" x2="638.947" y2="323.363"/>
	</g>
</g>
<g>
	<g>
		<line class="st2" x1="343.804" y1="12.641" x2="344.511" y2="13.348"/>
		<line class="st10" x1="347.358" y1="16.195" x2="644.871" y2="313.709"/>
		<line class="st2" x1="646.294" y1="315.133" x2="647.001" y2="315.84"/>
	</g>
</g>
<g>
	<g>
		<line class="st2" x1="74.359" y1="296.006" x2="75.359" y2="296.006"/>
		<line class="st14" x1="79.355" y1="296.006" x2="670.684" y2="296.006"/>
		<line class="st2" x1="672.682" y1="296.006" x2="673.682" y2="296.006"/>
	</g>
</g>
<g>
	<g>
		<line class="st2" x1="74.359" y1="283.692" x2="75.359" y2="283.692"/>
		<line class="st3" x1="79.354" y1="283.692" x2="670.641" y2="283.694"/>
		<line class="st2" x1="672.639" y1="283.694" x2="673.639" y2="283.694"/>
	</g>
</g>
</svg>
